<?xml version="1.0" encoding="UTF-8" standalone="no"?>
<!-- Created with Inkscape (http://www.inkscape.org/) -->

<svg
   sodipodi:docname="hands.svg"
   inkscape:version="1.1.2 (0a00cf5339, 2022-02-04)"
   id="svg5"
   version="1.1"
   viewBox="0 0 32 32"
   height="32"
   width="32"
   xmlns:inkscape="http://www.inkscape.org/namespaces/inkscape"
   xmlns:sodipodi="http://sodipodi.sourceforge.net/DTD/sodipodi-0.dtd"
   xmlns="http://www.w3.org/2000/svg"
   xmlns:svg="http://www.w3.org/2000/svg">
  <sodipodi:namedview
     id="namedview7"
     pagecolor="#ffffff"
     bordercolor="#666666"
     borderopacity="1.0"
     inkscape:pageshadow="2"
     inkscape:pageopacity="0.0"
     inkscape:pagecheckerboard="0"
     inkscape:document-units="mm"
     showgrid="false"
     inkscape:zoom="10.248373"
     inkscape:cx="65.668962"
     inkscape:cy="45.373057"
     inkscape:window-width="2560"
     inkscape:window-height="1415"
     inkscape:window-x="1920"
     inkscape:window-y="25"
     inkscape:window-maximized="1"
     inkscape:current-layer="layer1"
     fit-margin-top="1"
     fit-margin-right="1"
     fit-margin-bottom="1"
     fit-margin-left="1"
     units="mm"
     showguides="true"
     inkscape:guide-bbox="true" />
  <defs
     id="defs2" />
  <g
     inkscape:label="Layer 1"
     inkscape:groupmode="layer"
     id="layer1">
    <path
       id="B"
       style="fill:none;stroke:#000000;stroke-width:1.165;stroke-linecap:round;stroke-linejoin:round;stroke-miterlimit:4;stroke-dasharray:none;stroke-opacity:1"
       d="m 9.1519077,20.892322 -5.0135,-6.925011 M 12.595408,18.24694 7.7461077,5.9408498 M 16.633388,17.034055 V 2.9086138 M 21.633047,18.092384 24.142577,4.9073928 M 9.1519077,20.892322 12.595408,18.24694 l 4.03798,-1.212885 4.999659,1.058333 -0.0679,6.496736 c 0.004,2.348638 -0.5366,3.749831 -1.40496,4.216884 H 10.885768 C 9.0871477,27.741978 9.1519077,20.892322 9.1519077,20.892322 Z"
       sodipodi:nodetypes="cccccccccccccccc" />
    <path
       id="V"
       style="fill:none;stroke:#000000;stroke-width:1.165;stroke-linecap:round;stroke-linejoin:round;stroke-miterlimit:4;stroke-dasharray:none;stroke-opacity:1"
       d="M 16.633388,17.034058 15.548592,3.3312858 M 21.039177,17.994713 23.905107,4.4671228 M 8.8598917,21.453978 l 3.1499063,-3.282582 4.62359,-1.137338 4.405789,0.960655 0.18587,6.594415 c 0.004,2.34863 -0.5366,3.74983 -1.404956,4.21688 h -9.27442 c -1.7986203,-1.06403 -1.6857793,-7.35203 -1.6857793,-7.35203 z"
       sodipodi:nodetypes="cccccccccccc" />
    <path
       id="H"
       style="fill:none;stroke:#000000;stroke-width:1.165;stroke-linecap:round;stroke-linejoin:round;stroke-miterlimit:4;stroke-dasharray:none;stroke-opacity:1"
       d="m 21.565187,24.059958 h 6.74399 M 16.715318,17.034048 15.171068,3.3829078 M 21.430897,18.304518 24.549477,4.8034178 M 9.1999867,21.453978 l 3.1499103,-3.28259 4.365421,-1.13734 4.715579,1.27047 0.13425,6.28461 c 0.004,2.34863 -0.5366,3.74983 -1.40496,4.21688 h -9.27442 c -1.7986213,-1.06403 -1.6857813,-7.35203 -1.6857803,-7.35203 z"
       sodipodi:nodetypes="cccccccccccccc" />
    <path
       id="OO"
       style="fill:none;stroke:#000000;stroke-width:1.165;stroke-linecap:round;stroke-linejoin:round;stroke-miterlimit:4;stroke-dasharray:none;stroke-opacity:1"
       d="m 21.565187,24.589128 h 6.36988 M 9.1519077,20.892318 4.1384057,13.967308 M 12.595408,18.246938 7.7461077,5.9408578 M 16.633388,17.034058 V 2.9086278 M 21.633047,18.092388 24.142577,4.9073978 M 9.1519077,20.892318 l 3.4435003,-2.64538 4.03798,-1.21288 4.999659,1.05833 -0.0679,6.49674 c 0.004,2.34863 -0.5366,3.74983 -1.40496,4.21688 h -9.274419 c -1.7986203,-1.06403 -1.7338603,-7.91369 -1.7338603,-7.91369 z"
       sodipodi:nodetypes="cccccccccccccccccc" />
    <path
       id="S"
       style="fill:none;stroke:#000000;stroke-width:1.165;stroke-linecap:round;stroke-linejoin:round;stroke-miterlimit:4;stroke-dasharray:none;stroke-opacity:1"
       d="m 20.25939,-28.326211 8.099483,-3.832942 m -20.5127643,2.136132 -5.0135,-6.92501 m 8.4569993,4.27963 -4.8492993,-12.306081 m 8.9562793,11.093201 v -14.125431 m 4.085925,14.922243 c 2.073092,-2.862483 4.387203,-3.036157 4.249004,2.991997 m -14.1515487,7.98314 c -1.7986196,-1.06403 -1.7338596,-7.91369 -1.7338596,-7.91369 l 3.4434993,-2.64538 4.10698,-1.21288 4.085925,0.796812 0.776837,6.758258 c 0.004,2.34863 -0.5366,3.74983 -1.40496,4.21688 m -2.127522,-7.819578 c -3.43905,-0.942369 -4.85961,0.295841 -4.73183,1.593915 0.23227,2.359516 4.76409,0.343763 4.79016,3.195652 0.0184,2.008766 -2.13369,2.278271 -4.65031,1.592365"
       sodipodi:nodetypes="ccccccccccccccccccscc" />
    <path
       id="R"
       style="fill:none;stroke:#000000;stroke-width:1.24367;stroke-linecap:round;stroke-linejoin:round;stroke-miterlimit:4;stroke-dasharray:none;stroke-opacity:1"
       d="m -43.03323,50.241731 5.287969,-12.448785 m 0.04931,13.578584 -4.839468,-14.084111 m -6.633577,25.521221 c -1.920079,-1.135884 -1.850946,-8.448101 -1.850946,-8.448101 l 3.676038,-2.824022 4.310664,-1.294786 5.337289,1.129799 -0.07249,6.935464 c 0.0043,2.507233 -0.572836,4.003056 -1.499836,4.501646 m -6.948514,-1.123776 v -7.607246 c 1.400249,0 4.127263,-0.186345 4.127263,1.712403 0.0085,1.96952 -1.326694,2.095401 -4.107097,2.140374 2.586319,0.09668 3.814172,1.344046 4.702345,3.660594"
       sodipodi:nodetypes="cccccccccccccccc" />
    <path
       id="M"
       style="fill:none;stroke:#000000;stroke-width:1.165;stroke-linecap:round;stroke-linejoin:round;stroke-miterlimit:4;stroke-dasharray:none;stroke-opacity:1"
       d="m 9.1519137,20.892318 -5.013502,-6.92501 m 5.013502,6.92501 3.4434993,-2.64538 4.444216,-0.81019 4.541178,1.46307 -0.0157,5.68931 c 0.004,2.34863 -0.5366,3.74983 -1.40496,4.21688 h -9.274374 c -1.7986193,-1.06403 -1.7338593,-7.91369 -1.7338593,-7.91369 z"
       sodipodi:nodetypes="cccccccccc" />
    <path
       id="PM"
       style="fill:none;stroke:#000000;stroke-width:1.165;stroke-linecap:round;stroke-linejoin:round;stroke-miterlimit:4;stroke-dasharray:none;stroke-opacity:1"
       d="m 21.565257,24.589128 h 6.41735 m -18.8306303,-3.16764 -5.0135,-6.92501 m 5.0135,6.92501 3.4435003,-2.64538 4.444216,-0.81019 4.541174,1.46307 -0.0156,5.68931 c 0.004,2.34863 -0.53661,3.74983 -1.40497,4.21688 h -9.27446 c -1.7986203,-1.06403 -1.7338603,-7.91369 -1.7338603,-7.91369 z"
       sodipodi:nodetypes="cccccccccccc" />
    <path
       id="C"
       style="fill:none;stroke:#000000;stroke-width:1.165;stroke-linecap:round;stroke-linejoin:round;stroke-miterlimit:4;stroke-dasharray:none;stroke-opacity:1"
       d="M 16.195258,17.034057 V 2.9086168 m -7.0433503,17.9837112 3.0783903,-2.645381 3.96496,-1.21289 5.437789,1.642504 -0.0679,5.912566 c 0.004,2.34864 -0.5366,3.74983 -1.40496,4.216881 H 10.885768 C 9.0871477,27.741977 9.1519077,20.892328 9.1519077,20.892328 Z"
       sodipodi:nodetypes="cccccccccc" />
    <path
       id="PC"
       style="fill:none;stroke:#000000;stroke-width:1.165;stroke-linecap:round;stroke-linejoin:round;stroke-miterlimit:4;stroke-dasharray:none;stroke-opacity:1"
       d="m 21.565217,25.118298 h 6.52817 M 16.195322,17.563228 V 3.4377878 m -7.0433503,17.9837102 3.0783903,-2.64538 3.96496,-1.21289 5.437785,1.6425 -0.0679,5.91257 c 0.004,2.34864 -0.53661,3.74983 -1.40497,4.21688 h -9.274415 c -1.7986203,-1.06403 -1.7338603,-7.91368 -1.7338603,-7.91368 z"
       sodipodi:nodetypes="ccccccccccccc" />
    <path
       id="I"
       style="fill:none;stroke:#000000;stroke-width:1.165;stroke-linecap:round;stroke-linejoin:round;stroke-miterlimit:4;stroke-dasharray:none;stroke-opacity:1"
       d="M 21.632967,18.621557 V 4.4961178 M 9.0720237,21.341853 l 2.9712633,-2.811166 4.45726,-1.112567 5.13242,1.203438 -0.0678,5.96757 c 0.004,2.34864 -0.5366,3.74983 -1.40496,4.21688 H 10.885788 C 9.0871737,27.741978 9.0720437,21.341853 9.0720437,21.341853 Z"
       sodipodi:nodetypes="ccccccccccc" />
    <path
       id="IM"
       style="fill:none;stroke:#000000;stroke-width:1.165;stroke-linecap:round;stroke-linejoin:round;stroke-miterlimit:4;stroke-dasharray:none;stroke-opacity:1"
       d="M 21.632967,18.621558 V 4.4961158 M 9.0720227,21.341858 l 2.9712643,-2.81117 4.45726,-1.11257 5.13242,1.20344 -0.0678,5.96757 c 0.004,2.34864 -0.5366,3.74983 -1.40496,4.21688 h -9.274419 c -1.7986203,-1.06403 -1.8137453,-7.46415 -1.8137453,-7.46415 z m 0,0 -5.013499,-6.92501"
       sodipodi:nodetypes="ccccccccccccc" />
    <path
       id="L"
       style="fill:none;stroke:#000000;stroke-width:1.165;stroke-linecap:round;stroke-linejoin:round;stroke-miterlimit:4;stroke-dasharray:none;stroke-opacity:1"
       d="m 21.565187,24.589128 h 6.65516 m -6.58733,-5.4384 V 5.0252848 M 9.0720717,21.871028 l 2.9712603,-2.81117 4.45726,-1.11257 5.132425,1.20344 -0.0678,5.96757 c 0.004,2.34864 -0.53661,3.74983 -1.40497,4.21688 h -9.274415 c -1.7986203,-1.06403 -1.8137403,-7.46415 -1.8137403,-7.46415 z"
       sodipodi:nodetypes="ccccccccccccc" />
    <path
       id="hash"
       style="fill:none;stroke:#000000;stroke-width:1.165;stroke-linecap:round;stroke-linejoin:round;stroke-miterlimit:4;stroke-dasharray:none;stroke-opacity:1"
       d="m 8.5658107,20.954788 3.2596603,-2.87455 5.31787,-0.73937 4.224316,1.48106 -0.14261,5.7672 c 0.004,2.34864 -0.5366,3.74983 -1.404956,4.21688 h -9.27442 c -1.7986203,-1.06403 -1.9798603,-7.85122 -1.9798603,-7.85122 z"
       sodipodi:nodetypes="cccccccc" />
    <path
       id="P"
       style="fill:none;stroke:#000000;stroke-width:1.165;stroke-linecap:round;stroke-linejoin:round;stroke-miterlimit:4;stroke-dasharray:none;stroke-opacity:1"
       d="m 21.225047,24.589128 h 5.16386 m -17.8230963,-3.63434 3.2596613,-2.87455 5.317869,-0.73937 4.224316,1.48106 -0.14261,5.7672 c 0.004,2.34864 -0.5366,3.74983 -1.404956,4.21688 h -9.27442 c -1.7986203,-1.06403 -1.9798603,-7.85122 -1.9798603,-7.85122 z"
       sodipodi:nodetypes="cccccccccc" />
    <path
       id="W"
       style="fill:none;stroke:#000000;stroke-width:1.165;stroke-linecap:round;stroke-linejoin:round;stroke-miterlimit:4;stroke-dasharray:none;stroke-opacity:1"
       d="M 12.386398,18.134888 7.7703777,5.6306078 M 16.569268,17.034058 16.580768,2.8065378 M 21.379277,17.994718 24.245207,4.4671278 M 9.1999877,21.453978 l 3.1864203,-3.31909 4.18287,-1.10083 4.809999,0.96066 0.18587,6.59441 c 0.004,2.34863 -0.5366,3.74983 -1.40496,4.21688 h -9.274419 c -1.7986203,-1.06403 -1.6857803,-7.35203 -1.6857803,-7.35203 z"
       sodipodi:nodetypes="cccccccccccccc" />
    <path
       id="CA"
       style="fill:none;stroke:#000000;stroke-width:1.165;stroke-linecap:round;stroke-linejoin:round;stroke-miterlimit:4;stroke-dasharray:none;stroke-opacity:1"
       d="M 12.319102,18.413748 10.516952,4.8541078 m 6.53279,12.8276802 -0.46894,-14.3460802 m -7.4625613,18.2659302 3.2008713,-3.18789 4.73064,-0.73196 4.494365,1.27819 0.0211,6.15832 c 0.004,2.34863 -0.5366,3.74983 -1.40496,4.21688 h -9.274425 c -1.7986213,-1.06403 -1.7675613,-7.73354 -1.7675613,-7.73354 z"
       sodipodi:nodetypes="ccccccccccccc" />
    <path
       id="E"
       style="fill:none;stroke:#000000;stroke-width:1px;stroke-linecap:butt;stroke-linejoin:miter;stroke-opacity:1"
       d="m 93.456828,4.5454379 c -1.17199,5.104375 1.37715,5.7004631 1.37715,5.7004631 m -7.04705,18.443028 V 8.8646899 c 0,-4.678522 3.99949,-5.224736 7.16249,-4.178137 V 24.699788 c 0.68023,1.24683 1.11137,2.527567 0,4.018291" />
    <path
       id="g"
       style="fill:none;stroke:#000000;stroke-width:1px;stroke-linecap:butt;stroke-linejoin:miter;stroke-opacity:1"
       d="m 80.215288,22.424275 c 2.45316,-4.627114 -0.0332,-6.580928 -0.0332,-6.580928 m 7.50726,12.45528 0.29273,-10.337049 -1.32678,-0.03954 -0.81337,1.74063 c -1.63116,3.490739 -5.23236,3.910918 -7.42316,2.06709 l 2.89739,-8.060809 c 0.61323,-2.011723 2.81753,-1.932408 2.81753,-1.932408 l 8.76422,0.173716 c 0,0 2.1462,0.111861 2.05151,2.366471 v 10.42306 c 0.68023,1.24683 1.11137,2.527573 0,4.018295"
       sodipodi:nodetypes="cccccsccccccc" />
    <path
       id="r"
       style="fill:none;stroke:#000000;stroke-width:1px;stroke-linecap:butt;stroke-linejoin:miter;stroke-opacity:1"
       d="m 68.656598,23.702733 c 5.10438,1.17199 5.70046,-1.37715 5.70046,-1.37715 m 12.60874,6.633078 h -13.98995 c -4.67852,0 -5.22473,-3.585518 -4.17813,-6.748508 h 20.01323 c 4.1765,-0.926525 8.12964,1.615055 6.13847,6.507926"
       sodipodi:nodetypes="cccsccc" />
    <path
       id="c"
       style="fill:none;stroke:#000000;stroke-width:1px;stroke-linecap:butt;stroke-linejoin:miter;stroke-opacity:1"
       d="m 73.569608,15.351433 c 5.23716,-0.018 5.23272,-2.382255 5.23272,-2.382255 m 8.9846,15.719751 c 0.13189,-3.906077 0.085,-5.718536 -0.60731,-7.59455 -1.33499,-0.855839 -4.02985,-1.81894 -5.02882,-2.908704 l -3.75855,0.668165 c -3.80497,0.676417 -5.32506,-1.669993 -5.02422,-4.988031 3.43931,-1.116831 5.72719,-1.493613 10.19733,-1.483879 2.64325,0.123336 7.24844,2.108393 8.26336,4.000197 2.28764,2.964743 3.66768,8.064493 3.12071,12.335952"
       sodipodi:nodetypes="cccccscccc" />
    <path
       id="-"
       style="fill:none;stroke:#000000;stroke-width:1px;stroke-linecap:butt;stroke-linejoin:miter;stroke-opacity:1"
       d="m 11.32832,59.255435 h 4.351861 m -2.735887,1.876019 -1.615974,-1.876019 1.612254,-1.875018 m -18.5083021,1.875018 h -4.3518611 m 2.7358868,1.876018 1.6159743,-1.876018 -1.612254,-1.875019 M 9.2464571,69.944377 h 6.3698799 m -18.7831602,-3.69681 0.1900955,-9.49296 m 3.42589685,6.84758 -0.01704,-13.366266 M 4.5906451,62.389307 v -14.12543 m 4.585678,15.18376 -0.547747,-13.215065 m -11.7953991,16.014995 3.61599215,-2.64538 4.14147595,-1.21288 4.585678,1.05833 0.07009,6.49674 c 0.004,2.34863 -0.5366,3.74983 -1.40496,4.21688 h -9.274416 c -1.7986203,-1.06403 -1.7338603,-7.91369 -1.7338601,-7.91369 z" />
    <path
       id="+"
       style="fill:none;stroke:#000000;stroke-width:1px;stroke-linecap:butt;stroke-linejoin:miter;stroke-opacity:1"
       d="m 28.83319,65.627892 c 4.729821,0.572425 3.725537,3.129823 3.725537,3.129823 m 13.362204,-0.283947 c -1.674703,-1.899065 -4.08688,-3.956243 -7.102425,-4.712234 -3.956828,-0.991968 -8.134617,-1.120392 -9.253182,0.09617 -1.118564,1.21656 -1.039974,4.052473 -1.039974,4.052473 l 5.903536,1.472267 c 0.608186,0.455094 0.940848,1.052286 2.11963,1.213104 1.382207,0.8618 2.659967,1.775527 2.879529,3.215346 m -7.454774,-2.662875 v 4.351861 m -1.876019,-2.735887 1.876019,-1.615974 1.875018,1.612254 M 31.973271,52.251972 v -4.351861 m -1.876018,2.735887 1.876018,1.615974 1.875019,-1.612254 m -4.60312,5.880787 c 5.104381,1.17199 5.70046,-1.377149 5.70046,-1.377149 m 12.999048,6.288092 H 33.56442 c -4.67852,0 -5.22473,-3.240533 -4.17813,-6.403522 h 20.403538 c 3.809067,-0.36927 6.656722,0.886782 6.865962,4.140921"
       sodipodi:nodetypes="cccsscccccccccccccccccsccc" />
    <path
       id="Os"
       style="fill:none;stroke:#000000;stroke-width:1px;stroke-linecap:butt;stroke-linejoin:miter;stroke-opacity:1"
       d="m 81.392457,70.557949 h 7.443187 M 85.11405,66.560453 v 7.994993 M 71.6693,66.093857 66.65579,59.168847 m 8.457009,4.27963 L 70.2635,51.142399 m 8.887279,11.093198 V 48.110169 M 78.672367,74.007547 H 73.403159 C 71.60454,72.943517 71.6693,66.093857 71.6693,66.093857 l 3.443499,-2.64538 4.03798,-1.21288 4.999661,1.05833" />
    <path
       id="F"
       style="fill:none;stroke:#000000;stroke-width:1.165;stroke-linecap:round;stroke-linejoin:round;stroke-miterlimit:4;stroke-dasharray:none;stroke-opacity:1"
       d="m 20.25939,-28.326211 1.896091,-2.051022 m 1.990297,-2.152926 1.398598,-1.512878 m -17.6982673,4.020016 -5.0135,-6.92501 m 8.4569993,4.27963 -4.8492993,-12.306081 m 8.9562793,11.093201 v -14.125431 m 4.189422,15.232729 9.107089,3.358754 m -19.1131307,7.305897 c -1.7986196,-1.06403 -1.7338596,-7.91369 -1.7338596,-7.91369 l 3.4434993,-2.64538 4.10698,-1.21288 4.189422,1.107298 0.67334,6.447772 c 0.004,2.34863 -0.5366,3.74983 -1.40496,4.21688 m -5.988342,-4.444963 h 3.2842 m 0.45247,-3.23263 h -3.81041 v 7.164184"
       sodipodi:nodetypes="cccccccccccccccccccccccc" />
    <path
       id="T"
       style="fill:none;stroke:#000000;stroke-width:1.165;stroke-linecap:round;stroke-linejoin:round;stroke-miterlimit:4;stroke-dasharray:none;stroke-opacity:1"
       d="m 20.25939,-28.326211 5.284986,-5.716827 m -17.6982673,4.020016 -5.0135,-6.925009 m 8.4569993,4.279629 -4.8492993,-12.30608 m 8.9562793,11.093201 v -14.125431 m 4.189422,15.232729 2.038623,0.751857 m 2.945872,1.086457 4.122594,1.52044 m -19.1131307,7.305897 c -1.7986196,-1.06403 -1.7338596,-7.913691 -1.7338596,-7.913691 l 3.4434993,-2.64538 4.10698,-1.21288 4.189422,1.107299 0.67334,6.447772 c 0.004,2.34863 -0.5366,3.74983 -1.40496,4.21688 m -4.464342,-7.421401 v 6.855514 m -3.17538,-6.873219 h 6.35076"
       sodipodi:nodetypes="ccccccccccccccccccccccc" />
    <path
       id="D"
       style="fill:none;stroke:#000000;stroke-width:1.16409;stroke-linecap:round;stroke-linejoin:round;stroke-miterlimit:4;stroke-dasharray:none;stroke-opacity:1"
       d="m -34.138876,-18.358176 2.92106,4.495827 m 4.50744,-8.41956 c -0.55159,1.90606 -1.34731,3.092182 -1.21719,7.008665 m -3.24007,-5.896098 c -0.0912,2.321192 -0.39396,3.723156 1.54435,6.395408 m 7.602818,1.333469 c -2.210168,0.676253 -4.146378,1.147311 -6.416948,-0.567038 m 6.859459,-7.070969 v -14.12544 m -10.747179,24.309891 c -1.79861,-1.06403 -1.81374,-7.464155 -1.81374,-7.464155 h -2e-5 c 0.63507,-1.281379 1.68017,-2.036854 2.97126,-2.811166 1.29109,-0.774312 2.96228,-1.05446 4.45726,-1.112567 1.61585,-0.0628 3.396131,0.676678 5.132419,1.203438 l -0.0678,5.96757 c 0.004,2.34864 -0.5366,3.74983 -1.40496,4.21688 m -8.894219,-21.478085 v 6.928098 c 1.91354,0 5.48194,0.475944 5.48194,-3.365559 0,-4.077933 -3.81128,-3.562539 -5.48194,-3.562539 z"
       sodipodi:nodetypes="ccccccccccccczscccccsc" />
    <path
       id="LL"
       style="fill:none;stroke:#000000;stroke-width:1.30751;stroke-linecap:round;stroke-linejoin:round;paint-order:markers stroke fill;stop-color:#000000"
       d="m -29.922672,19.683979 c 0,0.895186 -0.725692,1.620877 -1.620878,1.620877 -0.895186,0 -1.620877,-0.725691 -1.620877,-1.620877 0,-0.895185 0.725691,-1.620877 1.620877,-1.620877 0.895186,0 1.620878,0.725692 1.620878,1.620877 z m -1.422108,-6.237322 h 2.018556 m 0.793696,-1.910465 h -2.976275 l -0.03474,6.52691 m 7.154243,-3.505863 3.072193,-9.7139259 m -3.538455,4.354194 0.280293,-9.62187489 c 0.173173,-4.09877511 5.258653,-2.53183431 3.7773,2.54014589 M -36.539483,21.231108 c -2.020221,-1.195124 -1.947482,-8.888703 -1.947482,-8.888703 l 3.867759,-2.9713069 4.535484,-1.362314 5.228158,1.188723 0.311223,7.2971769 c 0.0045,2.637995 -0.602713,4.211831 -1.57806,4.736424"
       sodipodi:nodetypes="sssssccccccccccccccccc" />
  </g>
</svg>
