<?xml version="1.0" encoding="UTF-8" standalone="no"?>
<!-- Created with Inkscape (http://www.inkscape.org/) -->

<svg
   sodipodi:docname="hands.svg"
   inkscape:version="1.1.2 (0a00cf5339, 2022-02-04)"
   id="svg5"
   version="1.1"
   viewBox="0 0 32 32"
   height="32"
   width="32"
   xmlns:inkscape="http://www.inkscape.org/namespaces/inkscape"
   xmlns:sodipodi="http://sodipodi.sourceforge.net/DTD/sodipodi-0.dtd"
   xmlns="http://www.w3.org/2000/svg"
   xmlns:svg="http://www.w3.org/2000/svg">
  <sodipodi:namedview
     id="namedview7"
     pagecolor="#ffffff"
     bordercolor="#666666"
     borderopacity="1.0"
     inkscape:pageshadow="2"
     inkscape:pageopacity="0.0"
     inkscape:pagecheckerboard="0"
     inkscape:document-units="mm"
     showgrid="false"
     inkscape:zoom="7.246694"
     inkscape:cx="49.677825"
     inkscape:cy="20.5611"
     inkscape:window-width="2560"
     inkscape:window-height="1415"
     inkscape:window-x="1920"
     inkscape:window-y="25"
     inkscape:window-maximized="1"
     inkscape:current-layer="layer1"
     fit-margin-top="1"
     fit-margin-right="1"
     fit-margin-bottom="1"
     fit-margin-left="1"
     units="mm"
     showguides="true"
     inkscape:guide-bbox="true"
     inkscape:snap-others="true"
     inkscape:snap-global="true" />
  <defs
     id="defs2">
    <marker
       style="overflow:visible"
       id="TriangleOutS"
       refX="0.0"
       refY="0.0"
       orient="auto"
       inkscape:stockid="TriangleOutS"
       inkscape:isstock="true">
      <path
         transform="scale(0.2)"
         style="fill-rule:evenodd;fill:context-stroke;stroke:context-stroke;stroke-width:1.0pt"
         d="M 5.77,0.0 L -2.88,5.0 L -2.88,-5.0 L 5.77,0.0 z "
         id="path1121" />
    </marker>
    <marker
       style="overflow:visible;"
       id="Arrow1Send"
       refX="0.0"
       refY="0.0"
       orient="auto"
       inkscape:stockid="Arrow1Send"
       inkscape:isstock="true">
      <path
         transform="scale(0.2) rotate(180) translate(6,0)"
         style="fill-rule:evenodd;fill:context-stroke;stroke:context-stroke;stroke-width:1.0pt;"
         d="M 0.0,0.0 L 5.0,-5.0 L -12.5,0.0 L 5.0,5.0 L 0.0,0.0 z "
         id="path988" />
    </marker>
    <marker
       style="overflow:visible"
       id="TriangleOutL"
       refX="0.0"
       refY="0.0"
       orient="auto"
       inkscape:stockid="TriangleOutL"
       inkscape:isstock="true">
      <path
         transform="scale(0.8)"
         style="fill-rule:evenodd;fill:context-stroke;stroke:context-stroke;stroke-width:1.0pt"
         d="M 5.77,0.0 L -2.88,5.0 L -2.88,-5.0 L 5.77,0.0 z "
         id="path1115" />
    </marker>
    <marker
       style="overflow:visible;"
       id="Arrow2Lend"
       refX="0.0"
       refY="0.0"
       orient="auto"
       inkscape:stockid="Arrow2Lend"
       inkscape:isstock="true">
      <path
         transform="scale(1.1) rotate(180) translate(1,0)"
         d="M 8.7185878,4.0337352 L -2.2072895,0.016013256 L 8.7185884,-4.0017078 C 6.9730900,-1.6296469 6.9831476,1.6157441 8.7185878,4.0337352 z "
         style="stroke:context-stroke;fill-rule:evenodd;fill:context-stroke;stroke-width:0.62500000;stroke-linejoin:round;"
         id="path994" />
    </marker>
    <marker
       style="overflow:visible"
       id="TriangleOutS-1"
       refX="0"
       refY="0"
       orient="auto"
       inkscape:stockid="TriangleOutS"
       inkscape:isstock="true">
      <path
         transform="scale(0.2)"
         style="fill:context-stroke;fill-rule:evenodd;stroke:context-stroke;stroke-width:1pt"
         d="M 5.77,0 -2.88,5 V -5 Z"
         id="path1121-0" />
    </marker>
  </defs>
  <g
     inkscape:label="Layer 1"
     inkscape:groupmode="layer"
     id="layer1">
    <path
       id="B"
       style="fill:none;stroke:#000000;stroke-width:1.165;stroke-linecap:round;stroke-linejoin:round;stroke-miterlimit:4;stroke-dasharray:none;stroke-opacity:1"
       d="m -96.679868,-42.314941 -5.013502,-6.925011 m 8.457002,4.279629 -4.8493,-12.30609 m 8.88728,11.093205 v -14.125441 m 4.999659,15.18377 2.50953,-13.184991 m -14.990669,15.984929 3.4435,-2.645382 4.03798,-1.212885 4.999659,1.058333 -0.0679,6.496736 c 0.004,2.348638 -0.5366,3.749831 -1.40496,4.216884 h -9.274419 c -1.79862,-1.06403 -1.73386,-7.913686 -1.73386,-7.913686 z"
       sodipodi:nodetypes="cccccccccccccccc" />
    <path
       id="V"
       style="fill:none;stroke:#000000;stroke-width:1.165;stroke-linecap:round;stroke-linejoin:round;stroke-miterlimit:4;stroke-dasharray:none;stroke-opacity:1"
       d="m -89.198388,-46.173205 -1.084796,-13.702772 m 5.490585,14.663427 2.86593,-13.52759 m -15.045215,16.986855 3.149906,-3.282582 4.62359,-1.137338 4.405789,0.960655 0.18587,6.594415 c 0.004,2.34863 -0.5366,3.74983 -1.404956,4.21688 h -9.27442 c -1.79862,-1.06403 -1.685779,-7.35203 -1.685779,-7.35203 z"
       sodipodi:nodetypes="cccccccccccc" />
    <path
       id="H"
       style="fill:none;stroke:#000000;stroke-width:1.165;stroke-linecap:round;stroke-linejoin:round;stroke-miterlimit:4;stroke-dasharray:none;stroke-opacity:1"
       d="m -84.266589,-39.147305 h 6.74399 m -11.593859,-7.02591 -1.54425,-13.65114 m 6.259829,14.92161 3.11858,-13.5011 m -15.34949,16.65056 3.14991,-3.28259 4.365421,-1.13734 4.715579,1.27047 0.13425,6.28461 c 0.004,2.34863 -0.5366,3.74983 -1.40496,4.21688 h -9.27442 c -1.798621,-1.06403 -1.685781,-7.35203 -1.68578,-7.35203 z"
       sodipodi:nodetypes="cccccccccccccc" />
    <path
       id="OO"
       style="fill:none;stroke:#000000;stroke-width:1.165;stroke-linecap:round;stroke-linejoin:round;stroke-miterlimit:4;stroke-dasharray:none;stroke-opacity:1"
       d="m -84.266589,-38.618135 h 6.36988 m -18.783159,-3.69681 -5.013502,-6.92501 m 8.457002,4.27963 -4.8493,-12.30608 m 8.88728,11.0932 v -14.12543 m 4.999659,15.18376 2.50953,-13.18499 m -14.990669,15.98492 3.4435,-2.64538 4.03798,-1.21288 4.999659,1.05833 -0.0679,6.49674 c 0.004,2.34863 -0.5366,3.74983 -1.40496,4.21688 h -9.274419 c -1.79862,-1.06403 -1.73386,-7.91369 -1.73386,-7.91369 z"
       sodipodi:nodetypes="cccccccccccccccccc" />
    <path
       id="S"
       style="fill:none;stroke:#000000;stroke-width:1.165;stroke-linecap:round;stroke-linejoin:round;stroke-miterlimit:4;stroke-dasharray:none;stroke-opacity:1"
       d="m -50.482751,-38.207975 8.099483,-3.832942 m -20.512764,2.136132 -5.0135,-6.92501 m 8.456999,4.27963 -4.849299,-12.306081 m 8.956279,11.093201 v -14.125431 m 4.085925,14.922243 c 2.073092,-2.862483 4.387203,-3.036157 4.249004,2.991997 m -14.151549,7.98314 c -1.798619,-1.06403 -1.733859,-7.91369 -1.733859,-7.91369 l 3.443499,-2.64538 4.10698,-1.21288 4.085925,0.796812 0.776837,6.758258 c 0.004,2.34863 -0.5366,3.74983 -1.40496,4.21688 m -2.127522,-7.819578 c -3.43905,-0.942369 -4.85961,0.295841 -4.73183,1.593915 0.23227,2.359516 4.76409,0.343763 4.79016,3.195652 0.0184,2.008766 -2.13369,2.278271 -4.65031,1.592365"
       sodipodi:nodetypes="ccccccccccccccccccscc" />
    <path
       id="R"
       style="fill:none;stroke:#000000;stroke-width:1.24367;stroke-linecap:round;stroke-linejoin:round;stroke-miterlimit:4;stroke-dasharray:none;stroke-opacity:1"
       d="m -55.026407,-44.558005 5.287969,-12.448785 m 0.04931,13.578584 -4.839468,-14.084111 m -6.633577,25.521221 c -1.920079,-1.135884 -1.850946,-8.448101 -1.850946,-8.448101 l 3.676038,-2.824022 4.310664,-1.294786 5.337289,1.129799 -0.07249,6.935464 c 0.0043,2.507233 -0.572836,4.003056 -1.499836,4.501646 m -6.948514,-1.123776 v -7.607246 c 1.400249,0 4.127263,-0.186345 4.127263,1.712403 0.0085,1.96952 -1.326694,2.095401 -4.107097,2.140374 2.586319,0.09668 3.814172,1.344046 4.702345,3.660594"
       sodipodi:nodetypes="cccccccccccccccc" />
    <path
       id="M"
       style="fill:none;stroke:#000000;stroke-width:1.165;stroke-linecap:round;stroke-linejoin:round;stroke-miterlimit:4;stroke-dasharray:none;stroke-opacity:1"
       d="m -96.679862,-42.314945 -5.013498,-6.92501 m 5.013498,6.92501 3.443499,-2.64538 4.444216,-0.81019 4.541178,1.46307 -0.0157,5.68931 c 0.004,2.34863 -0.5366,3.74983 -1.40496,4.21688 h -9.274374 c -1.798619,-1.06403 -1.733859,-7.91369 -1.733859,-7.91369 z"
       sodipodi:nodetypes="cccccccccc" />
    <path
       id="PM"
       style="fill:none;stroke:#000000;stroke-width:1.165;stroke-linecap:round;stroke-linejoin:round;stroke-miterlimit:4;stroke-dasharray:none;stroke-opacity:1"
       d="m -84.266519,-38.618135 h 6.41735 m -18.83063,-3.16764 -5.013501,-6.92501 m 5.013501,6.92501 3.4435,-2.64538 4.444216,-0.81019 4.541174,1.46307 -0.0156,5.68931 c 0.004,2.34863 -0.53661,3.74983 -1.40497,4.21688 h -9.27446 c -1.79862,-1.06403 -1.73386,-7.91369 -1.73386,-7.91369 z"
       sodipodi:nodetypes="cccccccccccc" />
    <path
       id="C"
       style="fill:none;stroke:#000000;stroke-width:1.165;stroke-linecap:round;stroke-linejoin:round;stroke-miterlimit:4;stroke-dasharray:none;stroke-opacity:1"
       d="m -89.636518,-46.173206 v -14.12544 m -7.04335,17.983711 3.07839,-2.645381 3.96496,-1.21289 5.437789,1.642504 -0.0679,5.912566 c 0.004,2.34864 -0.5366,3.74983 -1.40496,4.216881 h -9.274419 c -1.79862,-1.064031 -1.73386,-7.91368 -1.73386,-7.91368 z"
       sodipodi:nodetypes="cccccccccc" />
    <path
       id="PC"
       style="fill:none;stroke:#000000;stroke-width:1.165;stroke-linecap:round;stroke-linejoin:round;stroke-miterlimit:4;stroke-dasharray:none;stroke-opacity:1"
       d="m -84.266559,-38.088965 h 6.52817 m -11.898065,-7.55507 v -14.12544 m -7.04335,17.98371 3.07839,-2.64538 3.96496,-1.21289 5.437785,1.6425 -0.0679,5.91257 c 0.004,2.34864 -0.53661,3.74983 -1.40497,4.21688 h -9.274415 c -1.79862,-1.06403 -1.73386,-7.91368 -1.73386,-7.91368 z"
       sodipodi:nodetypes="ccccccccccccc" />
    <path
       id="I"
       style="fill:none;stroke:#000000;stroke-width:1.165;stroke-linecap:round;stroke-linejoin:round;stroke-miterlimit:4;stroke-dasharray:none;stroke-opacity:1"
       d="m -84.198809,-44.585706 v -14.125439 m -12.560943,16.845735 2.971263,-2.811166 4.45726,-1.112567 5.13242,1.203438 -0.0678,5.96757 c 0.004,2.34864 -0.5366,3.74983 -1.40496,4.21688 h -9.274419 c -1.798614,-1.06403 -1.813744,-7.464155 -1.813744,-7.464155 z"
       sodipodi:nodetypes="ccccccccccc" />
    <path
       id="IM"
       style="fill:none;stroke:#000000;stroke-width:1.165;stroke-linecap:round;stroke-linejoin:round;stroke-miterlimit:4;stroke-dasharray:none;stroke-opacity:1"
       d="m -84.198809,-44.585705 v -14.125442 m -12.560944,16.845742 2.971264,-2.81117 4.45726,-1.11257 5.13242,1.20344 -0.0678,5.96757 c 0.004,2.34864 -0.5366,3.74983 -1.40496,4.21688 h -9.274419 c -1.79862,-1.06403 -1.813745,-7.46415 -1.813745,-7.46415 z m 0,0 -5.013497,-6.92501"
       sodipodi:nodetypes="ccccccccccccc" />
    <path
       id="L"
       style="fill:none;stroke:#000000;stroke-width:1.165;stroke-linecap:round;stroke-linejoin:round;stroke-miterlimit:4;stroke-dasharray:none;stroke-opacity:1"
       d="m -84.266589,-38.618135 h 6.65516 m -6.58733,-5.4384 v -14.125443 m -12.560945,16.845743 2.97126,-2.81117 4.45726,-1.11257 5.132425,1.20344 -0.0678,5.96757 c 0.004,2.34864 -0.53661,3.74983 -1.40497,4.21688 h -9.274415 c -1.79862,-1.06403 -1.81374,-7.46415 -1.81374,-7.46415 z"
       sodipodi:nodetypes="ccccccccccccc" />
    <path
       id="hash"
       style="fill:none;stroke:#000000;stroke-width:1.165;stroke-linecap:round;stroke-linejoin:round;stroke-miterlimit:4;stroke-dasharray:none;stroke-opacity:1"
       d="m -97.265965,-42.252475 3.25966,-2.87455 5.31787,-0.73937 4.224316,1.48106 -0.14261,5.7672 c 0.004,2.34864 -0.5366,3.74983 -1.404956,4.21688 h -9.27442 c -1.79862,-1.06403 -1.97986,-7.85122 -1.97986,-7.85122 z"
       sodipodi:nodetypes="cccccccc" />
    <path
       id="P"
       style="fill:none;stroke:#000000;stroke-width:1.165;stroke-linecap:round;stroke-linejoin:round;stroke-miterlimit:4;stroke-dasharray:none;stroke-opacity:1"
       d="m -84.606729,-38.618135 h 5.16386 m -17.823096,-3.63434 3.259661,-2.87455 5.317869,-0.73937 4.224316,1.48106 -0.14261,5.7672 c 0.004,2.34864 -0.5366,3.74983 -1.404956,4.21688 h -9.27442 c -1.79862,-1.06403 -1.97986,-7.85122 -1.97986,-7.85122 z"
       sodipodi:nodetypes="cccccccccc" />
    <path
       id="W"
       style="fill:none;stroke:#000000;stroke-width:1.165;stroke-linecap:round;stroke-linejoin:round;stroke-miterlimit:4;stroke-dasharray:none;stroke-opacity:1"
       d="m -93.445378,-45.072375 -4.61602,-12.50428 m 8.79889,11.40345 0.0115,-14.22752 m 4.798509,15.18818 2.86593,-13.52759 m -15.045219,16.98685 3.18642,-3.31909 4.18287,-1.10083 4.809999,0.96066 0.18587,6.59441 c 0.004,2.34863 -0.5366,3.74983 -1.40496,4.21688 h -9.274419 c -1.79862,-1.06403 -1.68578,-7.35203 -1.68578,-7.35203 z"
       sodipodi:nodetypes="cccccccccccccc" />
    <path
       id="CA"
       style="fill:none;stroke:#000000;stroke-width:1.165;stroke-linecap:round;stroke-linejoin:round;stroke-miterlimit:4;stroke-dasharray:none;stroke-opacity:1"
       d="m -93.512674,-44.793515 -1.80215,-13.55964 m 6.53279,12.82768 -0.46894,-14.34608 m -7.462561,18.26593 3.200871,-3.18789 4.73064,-0.73196 4.494365,1.27819 0.0211,6.15832 c 0.004,2.34863 -0.5366,3.74983 -1.40496,4.21688 h -9.274425 c -1.798621,-1.06403 -1.767561,-7.73354 -1.767561,-7.73354 z"
       sodipodi:nodetypes="ccccccccccccc" />
    <path
       id="E"
       style="fill:none;stroke:#000000;stroke-width:1px;stroke-linecap:butt;stroke-linejoin:miter;stroke-opacity:1"
       d="m 3.7085406,-59.024485 c -1.17199,5.104375 1.37715,5.700463 1.37715,5.700463 m -7.04705,18.443028 v -19.824239 c 0,-4.678522 3.99949,-5.224736 7.16249,-4.178137 v 20.013235 c 0.68023,1.24683 1.11137,2.527567 0,4.018291" />
    <path
       id="g"
       style="fill:none;stroke:#000000;stroke-width:1px;stroke-linecap:butt;stroke-linejoin:miter;stroke-opacity:1"
       d="m -9.5329994,-41.145648 c 2.45316,-4.627114 -0.0332,-6.580928 -0.0332,-6.580928 m 7.50726,12.45528 0.29273,-10.337049 -1.32678,-0.03954 -0.81337,1.74063 c -1.63116,3.490739 -5.23236,3.910918 -7.4231596,2.06709 l 2.8973896,-8.060809 c 0.61323,-2.011723 2.81753,-1.932408 2.81753,-1.932408 l 8.76422,0.173716 c 0,0 2.1462,0.111861 2.05151,2.366471 v 10.42306 c 0.68023,1.24683 1.11137,2.527573 0,4.018295"
       sodipodi:nodetypes="cccccsccccccc" />
    <path
       id="r"
       style="fill:none;stroke:#000000;stroke-width:1px;stroke-linecap:butt;stroke-linejoin:miter;stroke-opacity:1;font-variation-settings:normal;opacity:1;vector-effect:none;fill-opacity:1;stroke-miterlimit:4;stroke-dasharray:none;stroke-dashoffset:0;-inkscape-stroke:none;stop-color:#000000;stop-opacity:1"
       d="m -21.091689,-39.86719 c 5.10438,1.17199 5.70046,-1.37715 5.70046,-1.37715 m 12.6087396,6.633078 H -16.772439 c -4.67852,0 -5.22473,-3.585518 -4.17813,-6.748508 h 20.01322961 c 4.17649999,-0.926525 8.12963999,1.615055 6.13846999,6.507926"
       sodipodi:nodetypes="cccsccc" />
    <path
       id="c"
       style="fill:none;stroke:#000000;stroke-width:1px;stroke-linecap:butt;stroke-linejoin:miter;stroke-opacity:1"
       d="m -16.178679,-48.21849 c 5.23716,-0.018 5.23272,-2.382255 5.23272,-2.382255 m 8.9845996,15.719751 c 0.13189,-3.906077 0.085,-5.718536 -0.60731,-7.59455 -1.33499,-0.855839 -4.02985,-1.81894 -5.02882,-2.908704 l -3.7585496,0.668165 c -3.80497,0.676417 -5.32506,-1.669993 -5.02422,-4.988031 3.43931,-1.116831 5.72719,-1.493613 10.1973296,-1.483879 2.64325,0.123336 7.24844,2.108393 8.26336,4.000197 2.28764,2.964743 3.66768,8.064493 3.12071,12.335952"
       sodipodi:nodetypes="cccccscccc" />
    <path
       id="-"
       style="fill:none;stroke:#000000;stroke-width:1px;stroke-linecap:butt;stroke-linejoin:miter;stroke-opacity:1"
       d="m 43.003603,-48.344998 h 4.351861 m -2.735887,1.876019 -1.615974,-1.876019 1.612254,-1.875018 m -18.508302,1.875018 h -4.351861 m 2.735887,1.876018 1.615974,-1.876018 -1.612254,-1.875019 m 16.426439,12.563961 h 6.36988 m -18.78316,-3.69681 0.190095,-9.49296 m 3.425897,6.84758 -0.01704,-13.366266 m 4.158516,12.153386 v -14.12543 m 4.585678,15.18376 -0.547747,-13.215065 m -11.795399,16.014995 3.615992,-2.64538 4.141476,-1.21288 4.585678,1.05833 0.07009,6.49674 c 0.004,2.34863 -0.5366,3.74983 -1.40496,4.21688 H 30.24232 c -1.79862,-1.06403 -1.73386,-7.91369 -1.73386,-7.91369 z" />
    <path
       id="+"
       style="fill:none;stroke:#000000;stroke-width:1px;stroke-linecap:butt;stroke-linejoin:miter;stroke-opacity:1"
       d="m 60.508473,-41.972541 c 4.729821,0.572425 3.725537,3.129823 3.725537,3.129823 m 13.362204,-0.283947 c -1.674703,-1.899065 -4.08688,-3.956243 -7.102425,-4.712234 -3.956828,-0.991968 -8.134617,-1.120392 -9.253182,0.09617 -1.118564,1.21656 -1.039974,4.052473 -1.039974,4.052473 l 5.903536,1.472267 c 0.608186,0.455094 0.940848,1.052286 2.11963,1.213104 1.382207,0.8618 2.659967,1.775527 2.879529,3.215346 m -7.454774,-2.662875 v 4.351861 m -1.876019,-2.735887 1.876019,-1.615974 1.875018,1.612254 m -1.875018,-20.508301 v -4.351861 m -1.876018,2.735887 1.876018,1.615974 1.875019,-1.612254 m -4.60312,5.880787 c 5.104381,1.17199 5.70046,-1.377149 5.70046,-1.377149 m 12.999048,6.288092 H 65.239703 c -4.67852,0 -5.22473,-3.240533 -4.17813,-6.403522 h 20.403538 c 3.809067,-0.36927 6.656722,0.886782 6.865962,4.140921"
       sodipodi:nodetypes="cccsscccccccccccccccccsccc" />
    <path
       id="Os"
       style="fill:none;stroke:#000000;stroke-width:1px;stroke-linecap:butt;stroke-linejoin:miter;stroke-opacity:1"
       d="m 113.06774,-37.042484 h 7.44319 m -3.7216,-3.997496 v 7.994993 m -13.44475,-8.461589 -5.013507,-6.92501 m 8.457007,4.27963 -4.8493,-12.306078 m 8.88728,11.093198 v -14.125428 m -0.47841,25.897378 h -5.26921 c -1.79862,-1.06403 -1.73386,-7.91369 -1.73386,-7.91369 l 3.4435,-2.64538 4.03798,-1.21288 4.99966,1.05833" />
    <path
       id="F"
       style="fill:none;stroke:#000000;stroke-width:1.165;stroke-linecap:round;stroke-linejoin:round;stroke-miterlimit:4;stroke-dasharray:none;stroke-opacity:1"
       d="m -50.482751,-38.207975 1.896091,-2.051022 m 1.990297,-2.152926 1.398598,-1.512878 m -17.698267,4.020016 -5.0135,-6.92501 m 8.456999,4.27963 -4.849299,-12.306081 m 8.956279,11.093201 v -14.125431 m 4.189422,15.232729 9.107089,3.358754 m -19.113131,7.305897 c -1.798619,-1.06403 -1.733859,-7.91369 -1.733859,-7.91369 l 3.443499,-2.64538 4.10698,-1.21288 4.189422,1.107298 0.67334,6.447772 c 0.004,2.34863 -0.5366,3.74983 -1.40496,4.21688 m -5.988342,-4.444963 h 3.2842 m 0.45247,-3.23263 h -3.81041 v 7.164184"
       sodipodi:nodetypes="cccccccccccccccccccccccc" />
    <path
       id="T"
       style="fill:none;stroke:#000000;stroke-width:1.165;stroke-linecap:round;stroke-linejoin:round;stroke-miterlimit:4;stroke-dasharray:none;stroke-opacity:1"
       d="m -50.482751,-38.207975 5.284986,-5.716827 m -17.698267,4.020016 -5.0135,-6.925009 m 8.456999,4.279629 -4.849299,-12.30608 m 8.956279,11.093201 v -14.125431 m 4.189422,15.232729 2.038623,0.751857 m 2.945872,1.086457 4.122594,1.52044 m -19.113131,7.305897 c -1.798619,-1.06403 -1.733859,-7.913691 -1.733859,-7.913691 l 3.443499,-2.64538 4.10698,-1.21288 4.189422,1.107299 0.67334,6.447772 c 0.004,2.34863 -0.5366,3.74983 -1.40496,4.21688 m -4.464342,-7.421401 v 6.855514 m -3.17538,-6.873219 h 6.35076"
       sodipodi:nodetypes="ccccccccccccccccccccccc" />
    <path
       id="D"
       style="fill:none;stroke:#000000;stroke-width:1.16409;stroke-linecap:round;stroke-linejoin:round;stroke-miterlimit:4;stroke-dasharray:none;stroke-opacity:1"
       d="m -62.975913,-39.455251 2.92106,4.495827 m 4.50744,-8.41956 c -0.55159,1.90606 -1.34731,3.092182 -1.21719,7.008665 m -3.24007,-5.896098 c -0.0912,2.321192 -0.39396,3.723156 1.54435,6.395408 m 7.602818,1.333469 c -2.210168,0.676253 -4.146378,1.147311 -6.416948,-0.567038 m 6.859459,-7.070969 v -14.12544 m -10.747179,24.309891 c -1.79861,-1.06403 -1.81374,-7.464155 -1.81374,-7.464155 h -2e-5 c 0.63507,-1.281379 1.68017,-2.036854 2.97126,-2.811166 1.29109,-0.774312 2.96228,-1.05446 4.45726,-1.112567 1.61585,-0.0628 3.396131,0.676678 5.132419,1.203438 l -0.0678,5.96757 c 0.004,2.34864 -0.5366,3.74983 -1.40496,4.21688 m -8.894219,-21.478085 v 6.928098 c 1.91354,0 5.48194,0.475944 5.48194,-3.365559 0,-4.077933 -3.81128,-3.562539 -5.48194,-3.562539 z"
       sodipodi:nodetypes="ccccccccccccczscccccsc" />
    <path
       id="LL"
       style="fill:none;stroke:#000000;stroke-width:1.30751;stroke-linecap:round;stroke-linejoin:round;paint-order:markers stroke fill;stop-color:#000000"
       d="m -54.545362,-33.538225 c 0,0.895186 -0.725692,1.620877 -1.620878,1.620877 -0.895186,0 -1.620877,-0.725691 -1.620877,-1.620877 0,-0.895185 0.725691,-1.620877 1.620877,-1.620877 0.895186,0 1.620878,0.725692 1.620878,1.620877 z m -1.422108,-6.237322 h 2.018556 m 0.793696,-1.910465 h -2.976275 l -0.03474,6.52691 m 7.154243,-3.505863 3.072193,-9.713926 m -3.538455,4.354194 0.280293,-9.621875 c 0.173173,-4.098775 5.258653,-2.531834 3.7773,2.540146 m -15.741514,19.11533 c -2.020221,-1.195124 -1.947482,-8.888703 -1.947482,-8.888703 l 3.867759,-2.971307 4.535484,-1.362314 5.228158,1.188723 0.311223,7.297177 c 0.0045,2.637995 -0.602713,4.211831 -1.57806,4.736424"
       sodipodi:nodetypes="sssssccccccccccccccccc" />
    <path
       id="move-pinzer"
       style="fill:none;stroke:#000000;stroke-width:1px;stroke-linecap:butt;stroke-linejoin:miter;stroke-opacity:1"
       d="m 54.282671,9.5122058 c -0.774796,-2.565924 -1.495186,-5.04636 1.368717,-5.911131 m -3.631768,4.906438 2.263051,1.004693 1.328928,-2.085425 m -3.234768,5.8027172 c 5.221054,0.410938 5.436945,-2.198048 5.436945,-2.198048 m 13.78051,4.314266 -14.224855,2.108383 c -4.627962,0.685949 -5.643385,-2.439484 -5.071842,-5.721741 L 72.480635,8.7408718 c 3.713763,-0.92375 6.714802,-0.09878 7.398892,3.0895012 M 56.276068,25.633048 c 0,2.900005 0.277027,4.064015 2.289009,4.593586 m -4.165028,-2.977612 1.876019,-1.615974 1.875018,1.612254 m -5.321568,-6.285189 c 4.764303,0.01711 4.065014,2.674151 4.065014,2.674151 m 13.479115,-2.378887 c -1.88468,-1.690875 -5.132926,-2.760396 -8.216043,-3.159674 -4.045492,-0.523909 -7.838208,-0.317732 -8.807316,1.020939 -0.969108,1.338669 -0.641588,3.759632 -0.641588,3.759632 l 6.116071,1.160432 c 0.657094,0.381088 1.05711,0.935424 2.246602,0.957721 1.473252,0.694783 3.819229,1.15499 4.20515,2.559394" />
    <path
       id="move-hook"
       style="fill:none;stroke:#000000;stroke-width:1px;stroke-linecap:butt;stroke-linejoin:miter;stroke-opacity:1"
       d="m 61.962693,14.011118 c -1.801726,-1.984461 -3.517602,-3.91508 -1.302692,-5.9260358 m -1.172512,5.9906658 2.475204,-0.06463 0.30446,-2.454051 m 1.700359,10.518369 c 2.45316,-4.627114 -0.0332,-6.580928 -0.0332,-6.580928 m 7.50726,12.45528 0.29273,-10.337049 -1.32678,-0.03954 -0.81337,1.74063 c -1.63116,3.490739 -5.23236,3.910918 -7.42316,2.06709 l 2.89739,-8.060809 c 0.61323,-2.011723 2.81753,-1.932408 2.81753,-1.932408 l 8.76422,0.173716 c 0,0 2.1462,0.111861 2.05151,2.366471 v 10.42306 c 0.68023,1.24683 1.11137,2.527573 0,4.018295" />
    <path
       id="move-base"
       style="fill:none;stroke:#000000;stroke-width:1px;stroke-linecap:butt;stroke-linejoin:miter;stroke-opacity:1"
       d="M 56.679863,14.676983 C 58.081952,9.1665312 61.689081,6.2755661 69.887527,7.6813315 m -14.742202,5.0524565 1.534538,1.943195 2.147363,-1.226333 m -5.403472,6.115495 c 4.878368,1.9052 5.840499,-0.529493 5.840499,-0.529493 M 70.768545,27.440778 56.928724,25.396744 C 52.30041,24.713178 52.283932,21.086332 53.781437,18.110201 l 19.798464,2.924079 c 4.267053,-0.306365 7.806427,2.785524 5.121741,7.334964" />
    <path
       id="move-close"
       style="fill:none;stroke:#000000;stroke-width:1px;stroke-linecap:butt;stroke-linejoin:miter;stroke-opacity:1"
       d="m 54.862242,13.185165 c 0.0817,-2.679108 0.543511,-8.0239293 6.327999,-8.4970904 m -8.153888,6.8246844 1.825889,1.672406 1.92329,-1.554353 m -1.54147,7.538931 c 4.914961,-1.808683 4.101915,-4.028745 4.101915,-4.028745 m 12.095595,12.80879 c -1.259164,-1.277862 -1.047056,-5.688985 -1.067925,-6.938659 -1.547234,-0.347458 -4.734088,-1.018764 -6.045611,-1.700992 l -3.354096,1.500706 c -3.527628,1.578348 -5.575063,0.252626 -6.427565,-2.968107 2.849666,-2.226112 4.870575,-3.3629 9.07429,-4.883105 4.10996,-0.580847 7.656316,0.250621 10.996222,1.788188 3.698955,1.70286 4.850559,7.460078 4.583788,13.224317" />
    <path
       id="move-wig-close"
       style="fill:none;stroke:#000000;stroke-width:1px;stroke-linecap:butt;stroke-linejoin:miter;stroke-opacity:1"
       d="M 91.448809,10.759917 C 93.399141,4.6450898 99.902558,3.7133498 102.96191,3.9694728 m -12.760426,4.651519 1.247325,2.1389252 2.297924,-0.9135672 m -1.399601,6.3701422 c 5.53425,0.07705 5.572926,-2.421258 5.572926,-2.421258 m 11.148902,11.016958 c -1.39493,-0.928821 -6.47937,-3.913866 -7.51495,-5.083708 l -4.235758,0.04103 c -4.084035,0.03955 -5.535621,-1.625995 -5.156871,-5.126527 2.923246,-0.893468 4.928519,-1.120268 8.031159,-1.12804 M 99.131431,8.8512678 c 4.709789,2.9071872 6.025509,0.783061 6.025509,0.783061 m 3.91202,15.1778632 c -0.72027,-1.513194 -3.55119,-6.685028 -3.83936,-8.220582 l -3.65607,-2.139261 c -3.525113,-2.062637 -3.9158,-4.23715 -1.793731,-7.0467772 3.709781,0.917567 5.653311,1.99279 9.659311,4.4967122 M 92.931944,24.005417 c 4.110275,-1.077346 3.609139,-2.868558 3.609139,-2.868558 m 10.366697,10.0908 c -0.71858,-2.987609 -1.13691,-4.351935 -2.07564,-5.633349 -1.22885,-0.377583 -3.54852,-0.560274 -4.56265,-1.183424 l -2.811896,1.269858 c -2.846624,1.285543 -4.534626,-0.184306 -4.996708,-2.760494 2.466679,-1.545108 4.184619,-2.295393 7.698194,-3.195929 M 114.98981,5.2007658 c -1.17199,5.1043752 1.37715,5.7004632 1.37715,5.7004632 m -7.04705,20.190148 V 9.5200178 c 0,-4.678522 3.99949,-5.224736 7.16249,-4.178137 V 27.102236 c 0.68023,1.24683 1.11137,2.527567 0,4.018291"
       sodipodi:nodetypes="ccccccccccccccccscccccccscccccsccc" />
    <path
       id="move-wig-open"
       style="fill:none;stroke:#000000;stroke-width:1px;stroke-linecap:butt;stroke-linejoin:miter;stroke-opacity:1"
       d="m 104.86042,5.5367608 1.72026,-1.844152 -1.6907,-1.961425 m -11.314011,7.684112 c 1.206848,-3.150701 5.066492,-5.949976 13.004711,-5.722687 M 92.347132,16.216492 c 5.53425,0.07705 5.572926,-2.421258 5.572926,-2.421258 m 11.148902,11.016958 c -1.39493,-0.928821 -6.47937,-3.913866 -7.51495,-5.083708 l -4.235757,0.04103 c -4.084035,0.03955 -5.535622,-1.625995 -5.156872,-5.126527 2.923246,-0.893468 4.928519,-1.120268 8.031159,-1.12804 M 99.131431,8.8512678 c 4.709789,2.9071872 6.025509,0.783061 6.025509,0.783061 m 3.91202,15.1778632 c -0.72027,-1.513194 -3.55119,-6.685028 -3.83936,-8.220582 l -3.65607,-2.139261 c -3.525113,-2.062637 -3.9158,-4.23715 -1.793731,-7.0467772 3.709781,0.917567 5.653311,1.99279 9.659311,4.4967122 M 92.931944,24.005417 c 4.110276,-1.077346 3.60914,-2.868558 3.60914,-2.868558 m 10.366696,10.0908 c -0.71858,-2.987609 -1.13691,-4.351935 -2.07564,-5.633349 -1.22885,-0.377583 -3.54852,-0.560274 -4.56265,-1.183424 l -2.811895,1.269858 c -2.846625,1.285543 -4.534626,-0.184306 -4.996709,-2.760494 2.466679,-1.545108 4.184619,-2.295393 7.698194,-3.195929 M 114.98981,5.2007658 c -1.17199,5.1043752 1.37715,5.7004632 1.37715,5.7004632 m -7.04705,20.190148 V 9.5200178 c 0,-4.678522 3.99949,-5.224736 7.16249,-4.178137 V 27.102236 c 0.68023,1.24683 1.11137,2.527567 0,4.018291"
       sodipodi:nodetypes="ccccccccccccccccscccccccscccccsccc" />
    <path
       id="wiggle"
       style="fill:none;stroke:#000000;stroke-width:1px;stroke-linecap:butt;stroke-linejoin:miter;stroke-opacity:1"
       d="m 93.727072,16.561477 c 5.534251,0.07705 5.572927,-2.421258 5.572927,-2.421258 m 8.941491,13.03613 c -1.39493,-0.928821 -4.59467,-5.278384 -5.63026,-6.448226 l -3.913036,-0.613624 c -4.084036,0.03955 -5.535623,-1.625995 -5.156873,-5.126527 2.923246,-0.893468 5.758678,-0.847753 8.445509,-0.380372 M 99.236774,7.9950138 c 4.709786,2.9071872 6.451646,1.656841 6.451646,1.656841 m 2.4031,13.3662112 c -0.72028,-1.513194 -2.72296,-3.778587 -3.01113,-5.314141 l -3.50686,-3.251576 c -3.040084,-2.818783 -3.726845,-5.7029942 -0.47039,-7.9969242 3.54574,1.677565 6.03472,4.2363412 8.28413,7.5026982 m 5.60254,-8.7573562 c -1.17199,5.1043742 1.37715,5.7004622 1.37715,5.7004622 m -7.04705,20.190148 V 9.5200178 c 0,-4.678521 3.99949,-5.224735 7.16249,-4.178136 V 27.102236 c 0.68023,1.24683 1.11137,2.527567 0,4.018291 M 93.928079,5.8891008 l 0.573855,2.999281 2.860341,-0.358639 m 7.355015,-2.746725 2.34649,-1.744082 -1.84435,-2.119232 m -10.717496,6.968678 c 2.437352,-4.439442 6.312766,-6.082581 12.561846,-4.849446"
       sodipodi:nodetypes="cccccccccccscccccsccccccccccc" />
    <path
       id="move-open"
       style="fill:none;stroke:#000000;stroke-width:1px;stroke-linecap:butt;stroke-linejoin:miter;stroke-opacity:1"
       d="m 53.015748,7.6507754 c -0.530953,3.8941756 0.754185,6.2952096 3.859267,6.6359036 m -5.735285,-5.0199286 1.876018,-1.615975 1.875018,1.612255 M 53.095603,22.583687 c 0,-2.98224 0.718487,-4.582408 3.561695,-5.098804 m -5.437713,3.48283 1.876018,1.615974 1.875019,-1.612254 m -0.889696,7.329162 c 4.421916,-1.773567 4.771782,0.951587 4.771782,0.951587 m 9.11084,-6.807949 c -2.175105,-0.587453 -4.770898,-0.799182 -7.361951,-0.32652 -4.013051,0.732064 -6.335053,2.674135 -6.730418,4.278784 -0.395364,1.604647 0.817465,3.725348 0.817465,3.725348 l 6.192611,-1.402817 c 0.752119,0.106389 1.331051,0.469899 2.441831,0.0438 1.29216,0.07197 3.222799,-0.0046 4.379077,0.739659 M 57.407756,3.0873424 c 3.986249,3.396775 5.692172,1.411014 5.692172,1.411014 M 71.725933,16.078833 58.970932,9.4379154 c -4.149754,-2.160578 -3.137727,-5.287111 -0.74872,-7.609291 l 18.097529,9.4225176 c 2.024907,0.816742 3.527899,1.958234 4.200751,3.342049"
       sodipodi:nodetypes="cccccccccccccsscccccccsccc" />
    <path
       id="rot-ante"
       style="fill:none;stroke:#000000;stroke-width:1.00157;stroke-linecap:round;stroke-linejoin:miter;stroke-miterlimit:4;stroke-dasharray:none;stroke-opacity:1"
       d="m -55.92025,5.5044014 v 6.7130706 m 0,2.829478 v 3.507551 m 7.73232,-5.666509 -0.497456,-3.2551866 -3.352654,0.7054546 m -7.823294,-0.0153 -3.106083,-0.6734526 -0.569776,2.9800956 m 14.85181,-2.9968736 c -1.726548,4.5011126 -11.047024,5.9468456 -14.282034,0.01678 m 13.095458,-8.485714 h 6.36988 m -18.783159,-3.6968107 -4.632502,-6.4747225 m 8.076002,3.8293425 -2.578023,-6.1834477 m 6.616003,4.9705677 v -5.1105967 m 4.999659,6.1689267 1.142292,-5.9766787 m -13.623431,8.7766087 3.4435,-2.64538 4.03798,-1.21288 4.999659,1.05833 -0.0679,6.4967407 c 0.004,2.34863 -0.5366,3.74983 -1.40496,4.21688 h -9.274419 c -1.79862,-1.06403 -1.73386,-7.9136907 -1.73386,-7.9136907 z"
       sodipodi:nodetypes="cccccccccccccccccccccccccccccc" />
    <path
       id="rot-slash"
       style="fill:none;stroke:#000000;stroke-width:1.00157;stroke-linecap:round;stroke-linejoin:miter;stroke-miterlimit:4;stroke-dasharray:none;stroke-opacity:1"
       d="m -75.53755,30.609647 2.020898,3.220557 3.059608,-2.23736 m 5.306476,-5.621563 2.428657,-2.519439 -2.79641,-2.221321 m -7.998331,12.599683 c -0.404613,-4.802603 3.410098,-10.687452 10.79474,-10.378364 m 11.451451,17.172438 4.545571,-3.46777 m -15.41628,7.587514 -7.005251,-2.473407 m 8.022398,-1.288991 -8.878231,-5.395861 m 11.099456,2.332065 -7.318187,-9.11512 m 11.462118,7.148529 -4.740067,-9.79573 m -2.642236,18.588515 1.017147,-3.762398 2.221225,-3.063796 4.143931,-1.966591 3.488378,4.673063 c 1.281451,1.673814 1.658492,2.968018 1.293089,3.774043 l -6.61826,5.049003 c -1.862761,0.219874 -5.54551,-4.703324 -5.54551,-4.703324 z" />
    <path
       id="vector-palmar"
       style="fill:none;stroke:#000000;stroke-width:1.00157;stroke-linecap:round;stroke-linejoin:miter;stroke-miterlimit:4;stroke-dasharray:none;stroke-opacity:1"
       d="m -123.47469,72.042886 4.54557,-3.46777 m -15.41628,7.587514 -7.00525,-2.473407 m 8.0224,-1.288991 -8.87823,-5.395861 m 11.09945,2.332065 -7.31818,-9.115119 m 11.46211,7.148528 -4.74006,-9.795729 m -1.501,19.99379 c -0.67935,-0.787815 -1.14124,-1.405276 -1.14124,-1.405276 l 1.01715,-3.762398 2.22122,-3.063796 4.14393,-1.966591 3.48838,4.673063 c 1.28145,1.673814 1.65849,2.968018 1.29309,3.774043 l -6.61826,5.049003 c -0.69845,0.08244 -1.65277,-0.558177 -2.57288,-1.391222 m -8.04861,4.992783 10.071,-8.434668 m -6.26766,8.800533 -3.80334,-0.365865 -0.0366,-3.853666" />
    <path
       id="repeat"
       style="fill:none;stroke:#000000;stroke-width:1.46729;stroke-linecap:round;stroke-linejoin:miter;stroke-miterlimit:4;stroke-dasharray:none;stroke-opacity:1"
       d="m 82.578171,52.705429 -16.439029,10.00614 m 11.010429,-11.371058 5.4286,1.364918 -0.793026,5.589857 m -9.097232,-11.827684 -16.43903,10.00614 m 11.01043,-11.371057 5.4286,1.364917 -0.793026,5.589857" />
    <path
       id="vaiven"
       style="fill:none;stroke:#000000;stroke-width:1.46729;stroke-linecap:round;stroke-linejoin:miter;stroke-miterlimit:4;stroke-dasharray:none;stroke-opacity:1"
       d="m 95.525953,55.633036 16.439027,-10.00614 m -11.01043,11.371058 -5.428597,-1.364918 0.793025,-5.589857 M 116.70533,51.01553 100.2663,61.02167 m 11.01043,-11.371058 5.4286,1.364918 -0.79303,5.589857 m -10.18292,-15.5193 -16.439029,10.00614 m 11.010429,-11.371057 5.4286,1.364917 -0.79302,5.589857" />
    <path
       id="vector-distal"
       style="fill:none;stroke:#000000;stroke-width:1.00157;stroke-linecap:round;stroke-linejoin:miter;stroke-miterlimit:4;stroke-dasharray:none;stroke-opacity:1"
       d="m -122.18838,73.547212 4.66303,-3.308142 m -15.66999,7.048644 -6.91532,-2.714715 m 8.06225,-1.010169 -8.68588,-5.700329 m 11.01196,2.715359 -6.99787,-9.363285 m 11.20747,7.541499 -4.39771,-9.95413 m -3.2849,18.48577 1.14693,-3.724884 2.32608,-2.98497 4.2096,-1.821786 3.32432,4.791159 c 1.22267,1.717222 1.55463,3.023716 1.16151,3.816593 l -6.78928,4.816588 c -1.86926,0.15518 -5.37916,-4.8927 -5.37916,-4.8927 z m -11.04332,-21.240462 8.47578,10.036421 m -8.82609,-6.231625 0.35031,-3.804796 3.85349,-0.05233" />
    <path
       id="rot-abat"
       style="fill:none;stroke:#000000;stroke-width:1px;stroke-linecap:butt;stroke-linejoin:miter;stroke-opacity:1"
       d="M -76.528801,8.7161724 V 18.41125 m -10.433441,-2.124335 3.363907,1.407623 1.07455,-3.078049 m 2.399917,-7.8702166 0.361852,-3.480662 -3.57119,-0.02793 m -0.265129,14.4568546 c -1.969886,-4.128414 -3.156976,-9.4754486 3.836317,-14.4289286 m 7.972748,-0.198717 5.406448,-1.693282 m -19.531625,1.933925 -7.6453,-3.95676201 m 9.917539,0.718795 -9.090637,-8.56730319 m 12.602331,6.4023832 -5.263026,-9.5726304 m 10.759075,9.1037026 -2.940694,-9.2880066 m -6.968075,17.5418064 c -0.815301,-1.28457 -1.371213,-2.381983 -1.371213,-2.381983 v -2e-6 l 2.272239,-3.23796701 3.511694,-2.16491999 5.496049,-0.4689258 2.845151,5.6311748 c 1.057216,2.027823 1.142606,3.387859 0.479895,4.031564 l -9.314862,2.565843 c -0.579356,-0.106958 -1.205245,-0.568797 -1.816766,-1.198565"
       sodipodi:nodetypes="cccccccccccccccccccccccccccccc" />
    <path
       id="rot-8"
       style="fill:none;stroke:#000000;stroke-width:1px;stroke-linecap:butt;stroke-linejoin:miter;stroke-opacity:1"
       d="m -94.795868,37.536996 v 2.012776 m 0,3.491897 v 2.865553 m -5.121128,-13.78808 3.44911,-1.156452 1.295277,3.22261 m 9.255826,-11.460334 -2.615791,2.416597 2.551418,2.356573 m -10.48673,3.464554 c -4.670314,4.690714 0.15843,13.979018 9.051778,10.70414 9.99681,-3.681216 10.981969,-18.454193 -1.116467,-16.525269 m -3.006138,6.554464 5.191744,-2.394462 m -16.698771,4.04759 -5.75191,-3.795251 m 7.56411,0.344722 -7.2301,-7.469189 m 10.065309,4.962745 -4.786959,-10.214842 m 9.259739,9.198039 -2.184554,-10.199044 m -2.547679,22.971074 c -1.865926,-0.191126 -4.387956,-5.798254 -4.387956,-5.798254 l 1.8122,-3.450529 2.835209,-2.506444 4.47278,-1.016803 2.386806,5.320663 c 0.886119,1.912737 0.972222,3.257992 0.440034,3.965079 l -5.035146,2.322238"
       sodipodi:nodetypes="cccccccccccsccccccccccccccccccc" />
    <path
       style="fill:none;stroke:#000000;stroke-width:0.830327px;stroke-linecap:butt;stroke-linejoin:miter;stroke-opacity:1"
       d="m 110.9228,69.476589 h 17.76037 V 66.40761 l 9.18747,5.942451 -9.18747,6.404895 v -3.482458 h -17.77574"
       id="desp-d"
       sodipodi:nodetypes="ccccccc" />
    <path
       style="fill:none;stroke:#000000;stroke-width:0.830327px;stroke-linecap:butt;stroke-linejoin:miter;stroke-opacity:1"
       d="m 78.94307,77.437345 c 5.829925,-5.831386 13.41798,-8.910192 22.66604,-2.411394 l 1.83776,-2.457899 3.79966,10.26084 -11.193473,-0.372037 2.085359,-2.789048 C 95.503698,77.616861 87.968814,74.123476 81.020984,83.197389"
       id="desp-arc"
       sodipodi:nodetypes="ccccccc" />
    <path
       style="fill:none;stroke:#000000;stroke-width:0.759047px;stroke-linecap:butt;stroke-linejoin:miter;stroke-opacity:1"
       d="m 117.19009,83.939192 c 27.84842,-5.150839 25.7139,8.743064 7.67152,15.879054 h 9.68506 v -2.903097 l 8.39876,5.432321 -8.39876,5.85506 v -3.28108 h -15.98484 c -0.44977,0 -0.94126,-0.12934 -0.93168,-0.69497 l -0.0374,-5.997487 c 25.25059,-12.201231 10.88538,-11.087173 -0.46686,-9.098999"
       id="desp-2"
       sodipodi:nodetypes="ccccccccccc" />
    <path
       id="despl-3"
       style="fill:none;stroke:#000000;stroke-width:1px;stroke-linecap:butt;stroke-linejoin:miter;stroke-opacity:1"
       d="m 105.96728,94.016616 c 5.60262,4.334143 1.14238,8.005744 3.63092,10.040144 l 2.78463,-2.09329 0.53605,10.60261 -10.40573,-3.18329 2.88115,-2.16584 c -3.55651,-4.73111 0.79188,-6.37668 -1.36575,-8.366649 M 90.935458,98.499666 c 1.120214,-7.389387 6.602617,-9.802478 9.315162,-7.990261 3.94801,2.63761 -0.0417,9.835175 -1.88873,8.196819 -1.01721,-0.902294 0.556218,-2.782937 2.69348,-2.059334 m -14.039993,0.832309 c 0.426106,-8.107649 8.158706,-13.862235 14.175173,-10.852291 2.58681,1.29414 8.13327,7.127892 1.71063,13.586262 -4.286402,4.31024 -7.19985,1.73317 -8.009095,0.0747 -1.918924,-3.93268 2.271628,-8.408351 6.904705,-7.812906"
       sodipodi:nodetypes="ccccccccssccsssc" />
    <path
       style="fill:none;stroke:#000000;stroke-width:0.830327px;stroke-linecap:butt;stroke-linejoin:miter;stroke-opacity:1"
       d="m 152.70384,90.750867 c -15.98522,-0.638493 -17.11019,-21.296596 -5.02346,-25.073792 12.08673,-3.777197 18.93477,6.183835 15.85266,15.603888 l 2.8498,1.138988 -8.92779,6.325885 -2.53772,-10.908351 3.23374,1.292444 c 2.14858,-2.830245 -0.84728,-9.892048 -8.02738,-8.030047 -7.18009,1.862 -7.53414,13.670233 3.6847,14.182304"
       id="desp-circ"
       sodipodi:nodetypes="czccccczc" />
    <path
       id="indePext"
       style="fill:none;stroke:#000000;stroke-width:0.685743px;stroke-linecap:butt;stroke-linejoin:miter;stroke-opacity:1"
       d="m -3.2107986,123.99117 c -3.165783,0.80735 -2.256791,2.45766 -2.256791,2.45766 m -9.3621244,0.66979 c 0.97097,-1.43944 2.952628,-2.69343 4.9364404,-3.47408 2.603045,-1.02432 5.15995,-1.52084 6.028134,-0.79242 0.868184,0.72841 1.054825,2.39326 1.054825,2.39326 l -3.873803,1.79359 c -0.373351,0.36323 -0.546782,0.79874 -1.334163,1.0123 -0.863753,0.70822 -2.3471294,1.40623 -2.3691654,2.40475 m -24.206061,-11.37774 c 3.644146,-0.43674 3.757219,-2.21948 3.757219,-2.21948 m -0.177508,4.59918 c -3.215143,1.09288 -4.007637,-1.09122 -3.656375,-3.37497 l 11.00451,-3.74061 c 2.168392,-1.23475 4.490817,-1.05954 5.002766,0.82373 m -12.462156,5.22508 c 3.644146,-0.43674 3.757219,-2.21949 3.757219,-2.21949 m -0.979064,4.81532 c -2.545555,0.4873 -3.174828,-1.51054 -2.854819,-3.5911 l 11.004509,-3.74061 c 2.425749,-1.38129 5.044264,-0.9981 5.105256,1.56696 m -13.147337,5.40113 c 3.644146,-0.43674 3.757219,-2.21948 3.757219,-2.21948 m 6.68772,2.26558 -6.865228,2.3336 c -3.215143,1.09288 -4.007637,-1.09122 -3.656375,-3.37497 l 11.004509,-3.74061 c 2.762358,-1.57297 5.774691,-0.85777 4.975558,2.76194" />
    <path
       id="indePcur"
       style="fill:none;stroke:#000000;stroke-width:0.815774px;stroke-linecap:butt;stroke-linejoin:miter;stroke-opacity:1"
       d="m -16.810565,139.18524 c 4.164016,-0.95608 4.650289,1.12344 4.650289,1.12344 m 6.6962179,-5.7488 h -7.8229739 c -3.816616,0 -4.262203,3.26268 -3.408415,5.84297 h 11.3279109 m 8.679162,-29.58773 c -0.956078,4.16402 1.123443,4.65029 1.123443,4.65029 m -5.748799,15.04534 v -16.17209 c 0,-3.81662 3.26268,-4.26221 5.842972,-3.40842 v 16.32627 c 0.554914,1.01714 0.906627,2.06193 0,3.27802" />
    <path
       id="touch"
       style="fill:none;stroke:#000000;stroke-width:1px;stroke-linecap:butt;stroke-linejoin:miter;stroke-opacity:1"
       d="m -78.299174,85.676338 v 12.178598 m -5.437168,-2.881025 10.973729,-6.335685 m -10.976618,-0.06392 10.918816,6.303981 m -15.455833,1.172726 c 7.944495,3.016966 14.374393,9.255377 16.710612,18.053647 m -4.813386,-12.32177 c 5.186495,-0.727 4.833503,-3.321 4.833503,-3.321 m 14.145723,1.69603 -13.068554,4.99315 c -4.370387,1.66981 -6.16033,-1.48461 -6.311563,-4.81282 l 18.695134,-7.142925 c 0.678746,-0.447867 1.394678,-0.775796 2.108353,-0.976927" />
    <path
       id="forearm"
       style="fill:none;stroke:#000000;stroke-width:1px;stroke-linecap:butt;stroke-linejoin:miter;stroke-opacity:1"
       d="m -124.58394,3.7454278 10.60934,13.7427552 m -8.34495,-19.8322482 4.46225,-4.4142373 m -15.55262,7.8996643 -6.85081,-2.873621 m 8.08342,-0.823796 -8.55199,-5.8993094 m 10.94635,2.9688286 -6.77987,-9.522323 m 11.0304,7.798195 -4.16676,-10.052992 m -3.71074,18.4050178 1.23261,-3.697417 2.39436,-2.9304808 4.25053,-1.724128 3.21284,4.8666188 c 1.1827,1.74498802 1.48442,3.05879702 1.0731,3.842387 l -6.89865,4.658585 c -1.87235,0.111991 -5.26479,-5.015565 -5.26479,-5.015565 z m 15.95364,5.868142 c 1.97627,-3.254581 5.48274,-4.825203 10.35773,-4.123334 m -10.88946,1.705057 0.53173,2.418282 2.46733,-0.165297"
       sodipodi:nodetypes="ccccccccccccccccccccccccc" />
    <path
       id="phase"
       style="fill:none;stroke:#000000;stroke-width:1px;stroke-linecap:butt;stroke-linejoin:miter;stroke-opacity:1"
       d="m 12.804556,79.17603 h 6.390888 m -6.390888,-2.48788 h 6.390888 m 5.720686,8.04366 H 18.546249 M 37.329408,81.035 42.342911,74.10999 M 33.88591,78.38962 38.735209,66.08354 M 29.84793,77.17674 V 63.05131 M 24.848271,78.23507 22.33874,65.05008 M 37.329409,81.035 33.88591,78.38962 l -4.03798,-1.21288 -4.999659,1.05833 0.0679,6.49674 c -0.004,2.34863 0.5366,3.74983 1.40496,4.21688 H 35.59555 C 37.394169,87.88466 37.329409,81.035 37.329409,81.035 Z M 7.0838703,84.73181 H 13.45375 M -5.3294087,81.035 -10.342911,74.10999 m 8.4570023,4.27963 -4.8493,-12.30608 m 8.88728,11.0932 V 63.05131 m 4.999659,15.18376 2.50953,-13.18499 m -14.990669,15.98492 3.4435,-2.64538 4.03798,-1.21288 4.999659,1.05833 -0.0679,6.49674 c 0.004,2.34863 -0.5366,3.74983 -1.40496,4.21688 h -9.274419 c -1.79862,-1.06403 -1.73386,-7.91369 -1.73386,-7.91369 z" />
    <path
       id="antiphase"
       style="fill:none;stroke:#000000;stroke-width:1.165;stroke-linecap:round;stroke-linejoin:round;stroke-miterlimit:4;stroke-dasharray:none;stroke-opacity:1"
       d="m 25.409187,68.413136 -6.310477,0.8679 m 19.111687,1.103121 5.910285,6.177338 m -8.961238,-3.087449 6.480787,11.530598 M 31.324376,75.225791 33.248973,89.219493 M 26.227144,74.858537 25.537478,88.262494 m 12.672919,-17.878337 -3.050953,3.089889 -3.835068,1.751745 -5.097232,-0.367254 -0.817917,-6.445406 c -0.323965,-2.326183 0.02068,-3.787972 0.817306,-4.368982 l 9.187929,-1.263644 c 1.926822,0.809046 2.795935,7.603652 2.795935,7.603652 z m -26.419304,5.502596 c 3.87621,-3.303519 4.589543,3.752239 8.390888,0 m -13.2608855,7.86251 6.3104785,-0.8679 m -19.1116886,-1.10312 -5.9102834,-6.177338 m 8.9612364,3.087449 -6.4807868,-11.530599 M 1.0059065,76.936609 -0.91869024,62.942906 M 6.1031386,77.303863 6.7928047,63.899906 m -12.6729193,17.878337 3.050953,-3.089889 3.8350681,-1.751745 5.0972321,0.367254 0.8179173,6.445405 c 0.3239647,2.326183 -0.02068,3.787973 -0.817306,4.368982 l -9.1879296,1.263644 c -1.9268215,-0.809045 -2.7959349,-7.603651 -2.7959349,-7.603651 z" />
    <path
       id="accompany"
       style="fill:none;stroke:#000000;stroke-width:0.892748px;stroke-linecap:butt;stroke-linejoin:miter;stroke-opacity:1"
       d="m 19.077616,73.357285 c 0,0 -7.92205,-4.663693 -8.308521,-6.850912 -0.38647,-2.187219 1.744466,-3.625853 3.262538,-1.669207 1.518072,1.956645 -4.032642,5.561209 -3.47363,7.866771 0.559011,2.305562 2.860013,2.198154 4.470157,0.844602 1.610144,-1.353553 2.500433,-5.18849 2.500433,-5.18849 m 13.227956,-2.313067 -11.227721,3.387523 m 8.234334,-5.023133 2.993387,1.63561 -1.322928,3.176003 m -8.441154,12.446979 -1.999706,-5.323502 m 8.986164,14.537113 7.873879,-3.139008 M 29.054575,87.031112 40.23052,82.849259 m -11.462444,0.339934 11.805052,-4.434419 m -14.12912,0.934271 11.216187,-3.690857 m -9.68127,14.885387 1.07565,-3.852463 -0.286499,-3.841919 -2.324068,-3.500148 -5.451527,1.980956 c -1.964077,0.733967 -2.965391,1.625643 -3.083114,2.497981 l 2.911533,7.750911 c 1.453885,1.169128 7.158025,-1.035318 7.158025,-1.035318 z M 7.3569665,80.807676 12.804556,79.17603 m -17.0104987,1.649757 -6.0614433,-4.638134 m 8.3287477,1.493723 -7.2993782,-9.282144 m 10.442023,7.210547 -3.618231,-12.080221 m 8.165085,11.704653 -1.23116,-11.918763 m -8.7256432,17.510339 2.2673044,-3.144411 3.1426448,-2.071597 4.546854,-0.375568 1.606072,5.573475 c 0.6050215,2.007549 0.501613,3.344346 -0.121383,3.966203 l -7.93158288,2.375643 C -2.5067845,86.700278 -4.2059427,80.825787 -4.2059427,80.825787 Z"
       sodipodi:nodetypes="csssscccccccccccccccccccccccccccccccccccccccccc" />
    <path
       id="hold"
       style="fill:none;stroke:#000000;stroke-width:1px;stroke-linecap:butt;stroke-linejoin:miter;stroke-opacity:1"
       d="m 143.11386,47.745204 c 0,-7.922188 1.96217,-11.700285 -0.0204,-11.700285 -1.98252,0 0.0204,3.765104 0.0204,11.700285 z m -0.0145,1.682796 c 0.60652,0 0.46132,0.638293 -0.0505,0.638293 -0.51186,0 -0.4252,-0.638293 0.0505,-0.638293 z m -4.77624,-1.938762 -16.43903,10.006139 m 11.01043,-11.371056 5.4286,1.364917 -0.79302,5.589856" />
  </g>
</svg>
